2024-06-05T18:16:40.063Z [error]: ffmpeg ffmpeg version 7.0-essentials_build-www.gyan.dev Copyright (c) 2000-2024 the FFmpeg developers
  built with gcc 13.2.0 (Rev5, Built by MSYS2 project)
  configuration: --enable-gpl --enable-version3 --enable-static --disable-w32threads --disable-autodetect --enable-fontconfig --enable-iconv --enable-gnutls --enable-libxml2 --enable-gmp --enable-bzlib --enable-lzma --enable-zlib --enable-libsrt --enable-libssh --enable-libzmq --enable-avisynth --enable-sdl2 --enable-libwebp --enable-libx264 --enable-libx265 --enable-libxvid --enable-libaom --enable-libopenjpeg --enable-libvpx --enable-mediafoundation --enable-libass --enable-libfreetype --enable-libfribidi --enable-libharfbuzz --enable-libvidstab --enable-libvmaf --enable-libzimg --enable-amf --enable-cuda-llvm --enable-cuvid --enable-dxva2 --enable-d3d11va --enable-d3d12va --enable-ffnvcodec --enable-libvpl --enable-nvdec --enable-nvenc --enable-vaapi --enable-libgme --enable-libopenmpt --enable-libopencore-amrwb --enable-libmp3lame --enable-libtheora --enable-libvo-amrwbenc --enable-libgsm --enable-libopencore-amrnb --enable-libopus --enable-libspeex --enable-libvorbis --enable-librubberband

2024-06-05T18:16:40.066Z [error]: ffmpeg   libavutil      59.  8.100 / 59.  8.100
  libavcodec     61.  3.100 / 61.  3.100
  libavformat    61.  1.100 / 61.  1.100
  libavdevice    61.  1.100 / 61.  1.100
  libavfilter    10.  1.100 / 10.  1.100
  libswscale      8.  1.100 /  8.  1.100
  libswresample   5.  1.100 /  5.  1.100
  libpostproc    58.  1.100 / 58.  1.100
Splitting the commandline.
Reading option '-loglevel' ... matched as option 'loglevel' (set logging level) with argument 'debug'.
Reading option '-protocol_whitelist' ... matched as AVOption 'protocol_whitelist' with argument 'pipe,udp,rtp'.
Reading option '-fflags' ... matched as AVOption 'fflags' with argument '+genpts'.
Reading option '-f' ... matched as option 'f' (force container format (auto-detected otherwise)) with argument 'sdp'.
Reading option '-i' ... matched as input url with argument 'pipe:0'.
Reading option '-hls_time' ... matched as AVOption 'hls_time' with argument '1'.
Reading option '-hls_list_size' ... matched as AVOption 'hls_list_size' with argument '3'.
Reading option '-start_number' ... matched as AVOption 'start_number' with argument '1'.
Reading option '-f' ... matched as option 'f' (force container format (auto-detected otherwise)) with argument 'hls'.
Reading option '-hls_flags' ... matched as AVOption 'hls_flags' with argument 'delete_segments+append_list'.
Reading option 'C:\Users\ducng\repo\stream\vov-server\files\hls\kenh1-hls/kenh1-hls.m3u8' ... matched as output url.
Finished splitting the commandline.
Parsing a group of options: global .
Applying option loglevel (set logging level) with argument debug.
Successfully parsed a group of options.
Parsing a group of options: input url pipe:0.
Applying option f (force container format (auto-detected otherwise)) with argument sdp.
Successfully parsed a group of options.
Opening an input file: pipe:0.
[sdp @ 000001fe4042fdc0] Opening 'pipe:0' for reading
[sdp @ 000001fe4042fdc0] audio codec set to: opus
[sdp @ 000001fe4042fdc0] audio samplerate set to: 48000
[sdp @ 000001fe4042fdc0] audio channels set to: 2

2024-06-05T18:16:40.067Z [error]: ffmpeg [udp @ 000001fe4044aa80] end receive buffer size reported is 393216

2024-06-05T18:16:40.067Z [error]: ffmpeg [udp @ 000001fe4045adc0] end receive buffer size reported is 393216
[sdp @ 000001fe4042fdc0] setting jitter buffer size to 500

2024-06-05T18:16:40.073Z [error]: ffmpeg [sdp @ 000001fe4042fdc0] Before avformat_find_stream_info() pos: 143 bytes read:143 seeks:0 nb_streams:1

2024-06-05T18:16:40.073Z [error]: ffmpeg Transform tree:
    mdct_inv_float_avx2 - type: mdct_float, len: 120, factors[2]: [2, any], flags: [aligned, out_of_place, inv_only]
        fft_pfa_15xM_asm_float_avx2 - type: fft_float, len: 60, factors[2]: [15, 2], flags: [aligned, inplace, out_of_place, preshuf, asm_call]
            fft4_fwd_asm_float_sse2 - type: fft_float, len: 4, factor: 2, flags: [aligned, inplace, out_of_place, preshuf, asm_call]
Transform tree:
    mdct_inv_float_avx2 - type: mdct_float, len: 240, factors[2]: [2, any], flags: [aligned, out_of_place, inv_only]
        fft_pfa_15xM_asm_float_avx2 - type: fft_float, len: 120, factors[2]: [15, 2], flags: [aligned, inplace, out_of_place, preshuf, asm_call]
            fft8_asm_float_avx - type: fft_float, len: 8, factor: 2, flags: [aligned, inplace, out_of_place, preshuf, asm_call]
Transform tree:
    mdct_inv_float_avx2 - type: mdct_float, len: 480, factors[2]: [2, any], flags: [aligned, out_of_place, inv_only]
        fft_pfa_15xM_asm_float_avx2 - type: fft_float, len: 240, factors[2]: [15, 2], flags: [aligned, inplace, out_of_place, preshuf, asm_call]
            fft16_asm_float_fma3 - type: fft_float, len: 16, factor: 2, flags: [aligned, inplace, out_of_place, preshuf, asm_call]
Transform tree:
    mdct_inv_float_avx2 - type: mdct_float, len: 960, factors[2]: [2, any], flags: [aligned, out_of_place, inv_only]
        fft_pfa_15xM_asm_float_avx2 - type: fft_float, len: 480, factors[2]: [15, 2], flags: [aligned, inplace, out_of_place, preshuf, asm_call]
            fft32_asm_float_fma3 - type: fft_float, len: 32, factor: 2, flags: [aligned, inplace, out_of_place, preshuf, asm_call]

2024-06-05T18:16:41.012Z [error]: ffmpeg [sdp @ 000001fe4042fdc0] All info found

2024-06-05T18:16:41.013Z [error]: ffmpeg [sdp @ 000001fe4042fdc0] After avformat_find_stream_info() pos: 143 bytes read:143 seeks:0 frames:1
Input #0, sdp, from 'pipe:0':
  Metadata:
    title           : FFmpeg
  Duration: N/A, start: 0.000000, bitrate: N/A
  Stream #0:0, 1, 1/48000: Audio: opus, 48000 Hz, stereo, fltp
Successfully opened the file.
Parsing a group of options: output url C:\Users\ducng\repo\stream\vov-server\files\hls\kenh1-hls/kenh1-hls.m3u8.
Applying option f (force container format (auto-detected otherwise)) with argument hls.
Successfully parsed a group of options.
Opening an output file: C:\Users\ducng\repo\stream\vov-server\files\hls\kenh1-hls/kenh1-hls.m3u8.
[out#0/hls @ 000001fe40437200] No explicit maps, mapping streams automatically...

2024-06-05T18:16:41.013Z [error]: ffmpeg [aost#0:0/aac @ 000001fe404b7080] Created audio stream from input stream 0:0

2024-06-05T18:16:41.013Z [error]: ffmpeg Transform tree:
    mdct_inv_float_avx2 - type: mdct_float, len: 120, factors[2]: [2, any], flags: [aligned, out_of_place, inv_only]
        fft_pfa_15xM_asm_float_avx2 - type: fft_float, len: 60, factors[2]: [15, 2], flags: [aligned, inplace, out_of_place, preshuf, asm_call]
            fft4_fwd_asm_float_sse2 - type: fft_float, len: 4, factor: 2, flags: [aligned, inplace, out_of_place, preshuf, asm_call]
Transform tree:
    mdct_inv_float_avx2 - type: mdct_float, len: 240, factors[2]: [2, any], flags: [aligned, out_of_place, inv_only]
        fft_pfa_15xM_asm_float_avx2 - type: fft_float, len: 120, factors[2]: [15, 2], flags: [aligned, inplace, out_of_place, preshuf, asm_call]
            fft8_asm_float_avx - type: fft_float, len: 8, factor: 2, flags: [aligned, inplace, out_of_place, preshuf, asm_call]
Transform tree:
    mdct_inv_float_avx2 - type: mdct_float, len: 480, factors[2]: [2, any], flags: [aligned, out_of_place, inv_only]
        fft_pfa_15xM_asm_float_avx2 - type: fft_float, len: 240, factors[2]: [15, 2], flags: [aligned, inplace, out_of_place, preshuf, asm_call]
            fft16_asm_float_fma3 - type: fft_float, len: 16, factor: 2, flags: [aligned, inplace, out_of_place, preshuf, asm_call]
Transform tree:
    mdct_inv_float_avx2 - type: mdct_float, len: 960, factors[2]: [2, any], flags: [aligned, out_of_place, inv_only]
        fft_pfa_15xM_asm_float_avx2 - type: fft_float, len: 480, factors[2]: [15, 2], flags: [aligned, inplace, out_of_place, preshuf, asm_call]
            fft32_asm_float_fma3 - type: fft_float, len: 32, factor: 2, flags: [aligned, inplace, out_of_place, preshuf, asm_call]
Successfully opened the file.
Stream mapping:
  Stream #0:0 -> #0:0 (opus (native) -> aac (native))
[aost#0:0/aac @ 000001fe404b7080] Starting thread...

2024-06-05T18:16:41.013Z [error]: ffmpeg [af#0:0 @ 000001fe404b7dc0] Starting thread...
[aist#0:0/opus @ 000001fe40449300] [dec:opus @ 000001fe407bb680] Starting thread...
[in#0/sdp @ 000001fe40437980] Starting thread...

2024-06-05T18:16:41.014Z [error]: ffmpeg detected 16 logical cores

2024-06-05T18:16:41.016Z [error]: ffmpeg [graph_0_in_0:0 @ 000001fe404cc300] Setting 'time_base' to value '1/48000'
[graph_0_in_0:0 @ 000001fe404cc300] Setting 'sample_rate' to value '48000'
[graph_0_in_0:0 @ 000001fe404cc300] Setting 'sample_fmt' to value 'fltp'
[graph_0_in_0:0 @ 000001fe404cc300] 
2024-06-05T18:16:41.016Z [error]: ffmpeg Setting 'channel_layout' to value 'stereo'
[graph_0_in_0:0 @ 000001fe404cc300] tb:1/48000 samplefmt:fltp samplerate:48000 chlayout:stereo
[format_out_0_0 @ 000001fe404cc800] Setting 'sample_fmts' to value 'fltp'
[format_out_0_0 @ 000001fe404cc800] Setting 'sample_rates' to value '96000|88200|64000|48000|44100|32000|24000|22050|16000|12000|11025|8000|7350'
[AVFilterGraph @ 000001fe40496780] query_formats: 4 queried, 6 merged, 3 already done, 0 delayed
Transform tree:
    mdct_fwd_float_c - type: mdct_float, len: 1024, factors[2]: [2, any], flags: [unaligned, out_of_place, fwd_only]
        fft_sr_ns_float_fma3 - type: fft_float, len: 512, factor: 2, flags: [aligned, inplace, out_of_place, preshuf]
Transform tree:
    mdct_fwd_float_c - type: mdct_float, len: 128, factors[2]: [2, any], flags: [unaligned, out_of_place, fwd_only]
        fft_sr_ns_float_fma3 - type: fft_float, len: 64, factor: 2, flags: [aligned, inplace, out_of_place, preshuf]

2024-06-05T18:16:41.017Z [error]: ffmpeg [mpegts @ 000001fe404fe440] frame size not set
[mpegts @ 000001fe404fe440] service 1 using PCR in pid=256, pcr_period=96ms
[mpegts @ 000001fe404fe440] muxrate VBR, sdt every 1073741822000 ms, pat/pmt every 1073741822000 ms
2024-06-05T18:16:41.017Z [error]: ffmpeg 
[file @ 000001fe404cd300] Setting default whitelist 'file,crypto,data'
Output #0, hls, to 'C:\Users\ducng\repo\stream\vov-server\files\hls\kenh1-hls/kenh1-hls.m3u8':
  Metadata:
    title           : FFmpeg
    encoder         : Lavf61.1.100
  Stream #0:0, 0, 1/90000: Audio: aac (LC), 48000 Hz, stereo, fltp, delay 1024, 128 kb/s
      Metadata:
        encoder         : Lavc61.3.100 aac
[out#0/hls @ 000001fe40437200] Starting thread...

2024-06-05T18:16:41.017Z [error]: ffmpeg [out#0/hls @ 000001fe40437200] sq: send 0 ts 0.02

2024-06-05T18:16:41.026Z [error]: ffmpeg [out#0/hls @ 000001fe40437200] sq: send 0 ts 0.04

2024-06-05T18:16:41.027Z [error]: ffmpeg [out#0/hls @ 000001fe40437200] sq: receive 0 ts 0.0213333 queue head -1 ts N/A

2024-06-05T18:16:41.041Z [error]: ffmpeg [out#0/hls @ 000001fe40437200] sq: send 0 ts 0.06
[out#0/hls @ 000001fe40437200] sq: receive 0 ts 0.0426667 queue head -1 ts N/A

2024-06-05T18:16:41.072Z [error]: ffmpeg [out#0/hls @ 000001fe40437200] sq: send 0 ts 0.08
[out#0/hls @ 000001fe40437200] sq: receive 0 ts 0.064 queue head -1 ts N/A

2024-06-05T18:16:41.088Z [error]: ffmpeg [out#0/hls @ 000001fe40437200] sq: send 0 ts 0.1
[out#0/hls @ 000001fe40437200] sq: receive 0 ts 0.0853333 queue head -1 ts N/A

2024-06-05T18:16:41.118Z [error]: ffmpeg [out#0/hls @ 000001fe40437200] sq: send 0 ts 0.12
[out#0/hls @ 000001fe40437200] sq: receive 0 ts 0.106667 queue head -1 ts N/A

2024-06-05T18:16:41.134Z [error]: ffmpeg [out#0/hls @ 000001fe40437200] sq: send 0 ts 0.14
[out#0/hls @ 000001fe40437200] sq: receive 0 ts 0.128 queue head -1 ts N/A

2024-06-05T18:16:41.149Z [error]: ffmpeg [out#0/hls @ 000001fe40437200] sq: send 0 ts 0.16
[out#0/hls @ 000001fe40437200] sq: receive 0 ts 0.149333 queue head -1 ts N/A

2024-06-05T18:16:41.179Z [error]: ffmpeg [out#0/hls @ 000001fe40437200] sq: send 0 ts 0.18
[out#0/hls @ 000001fe40437200] sq: receive 0 ts 0.170667 queue head -1 ts N/A

2024-06-05T18:16:41.194Z [error]: ffmpeg [out#0/hls @ 000001fe40437200] sq: send 0 ts 0.2
[out#0/hls @ 000001fe40437200] sq: receive 0 ts 0.192 queue head -1 ts N/A

2024-06-05T18:16:41.226Z [error]: ffmpeg [out#0/hls @ 000001fe40437200] sq: send 0 ts 0.22
[out#0/hls @ 000001fe40437200] sq: receive 0 ts 0.213333 queue head -1 ts N/A

2024-06-05T18:16:41.241Z [error]: ffmpeg [out#0/hls @ 000001fe40437200] sq: send 0 ts 0.24
[out#0/hls @ 000001fe40437200] sq: receive 0 ts 0.234667 queue head -1 ts N/A

2024-06-05T18:16:41.257Z [error]: ffmpeg [out#0/hls @ 000001fe40437200] sq: send 0 ts 0.26
[out#0/hls @ 000001fe40437200] sq: receive 0 ts 0.256 queue head -1 ts N/A

2024-06-05T18:16:41.287Z [error]: ffmpeg [out#0/hls @ 000001fe40437200] sq: send 0 ts 0.28
[out#0/hls @ 000001fe40437200] sq: receive 0 ts 0.277333 queue head -1 ts N/A

2024-06-05T18:16:41.302Z [error]: ffmpeg [out#0/hls @ 000001fe40437200] sq: send 0 ts 0.3

2024-06-05T18:16:41.303Z [error]: ffmpeg [out#0/hls @ 000001fe40437200] sq: receive 0 ts 0.298667 queue head -1 ts N/A
[out#0/hls @ 000001fe40437200] sq: send 0 ts 0.32
[out#0/hls @ 000001fe40437200] sq: receive 0 ts 0.32 queue head -1 ts N/A

2024-06-05T18:16:41.317Z [error]: ffmpeg [out#0/hls @ 000001fe40437200] sq: send 0 ts 0.34

2024-06-05T18:16:41.348Z [error]: ffmpeg [out#0/hls @ 000001fe40437200] sq: send 0 ts 0.36
[out#0/hls @ 000001fe40437200] sq: receive 0 ts 0.341333 queue head -1 ts N/A

2024-06-05T18:16:41.363Z [error]: ffmpeg [out#0/hls @ 000001fe40437200] sq: send 0 ts 0.38
[out#0/hls @ 000001fe40437200] sq: receive 0 ts 0.362667 queue head -1 ts N/A

2024-06-05T18:16:41.392Z [error]: ffmpeg [out#0/hls @ 000001fe40437200] sq: send 0 ts 0.4
[out#0/hls @ 000001fe40437200] sq: receive 0 ts 0.384 queue head -1 ts N/A

2024-06-05T18:16:41.408Z [error]: ffmpeg [out#0/hls @ 000001fe40437200] sq: send 0 ts 0.42
[out#0/hls @ 000001fe40437200]
2024-06-05T18:16:41.408Z [error]: ffmpeg  sq: receive 0 ts 0.405333 queue head -1 ts N/A

2024-06-05T18:16:41.439Z [error]: ffmpeg [out#0/hls @ 000001fe40437200] sq: send 0 ts 0.44
[out#0/hls @ 000001fe40437200] sq: receive 0 ts 0.426667 queue head -1 ts N/A

2024-06-05T18:16:41.455Z [error]: ffmpeg [out#0/hls @ 000001fe40437200] sq: send 0 ts 0.46
[out#0/hls @ 000001fe40437200] sq: receive 0 ts 0.448 queue head -1 ts N/A

2024-06-05T18:16:41.486Z [error]: ffmpeg [out#0/hls @ 000001fe40437200] sq: send 0 ts 0.48
[out#0/hls @ 000001fe40437200] sq: receive 0 ts 0.469333 queue head -1 ts N/A

2024-06-05T18:16:41.516Z [error]: ffmpeg size=N/A time=00:00:00.42 bitrate=N/A speed=0.849x    
2024-06-05T18:16:41.517Z [error]: ffmpeg [out#0/hls @ 000001fe40437200] sq: send 0 ts 0.5

2024-06-05T18:16:41.517Z [error]: ffmpeg [out#0/hls @ 000001fe40437200] sq: receive 0 ts 0.490667 queue head -1 ts N/A
[out#0/hls @ 000001fe40437200] sq: send 0 ts 0.52
[out#0/hls @ 000001fe40437200] sq: receive 0 ts 0.512 queue head -1 ts N/A

2024-06-05T18:16:41.548Z [error]: ffmpeg [out#0/hls @ 000001fe40437200] sq: send 0 ts 0.54
[out#0/hls @ 000001fe40437200] sq: receive 0 ts 0.533333 queue head -1 ts N/A

2024-06-05T18:16:41.563Z [error]: ffmpeg [out#0/hls @ 000001fe40437200] sq: send 0 ts 0.56
[out#0/hls @ 000001fe40437200] sq: receive 0 ts 0.554667 queue head -1 ts N/A

2024-06-05T18:16:41.579Z [error]: ffmpeg [out#0/hls @ 000001fe40437200] sq: send 0 ts 0.58
[out#0/hls @ 000001fe40437200] sq: receive 0 ts 0.576 queue head -1 ts N/A

2024-06-05T18:16:41.595Z [error]: ffmpeg [out#0/hls @ 000001fe40437200] sq: send 0 ts 0.6
[out#0/hls @ 000001fe40437200] sq: receive 0 ts 0.597333 queue head -1 ts N/A

2024-06-05T18:16:41.641Z [error]: ffmpeg [out#0/hls @ 000001fe40437200] sq: send 0 ts 0.62
[out#0/hls @ 000001fe40437200] sq: receive 0 ts 0.618667 queue head -1 ts N/A

2024-06-05T18:16:41.641Z [error]: ffmpeg [out#0/hls @ 000001fe40437200] sq: send 0 ts 0.64
[out#0/hls @ 000001fe40437200] sq: receive 0 ts 0.64 queue head -1 ts N/A
[out#0/hls @ 000001fe40437200] sq: send 0 ts 0.66

